<?xml version="1.0" standalone="no"?>
<!DOCTYPE svg PUBLIC "-//W3C//DTD SVG 20010904//EN"
 "http://www.w3.org/TR/2001/REC-SVG-20010904/DTD/svg10.dtd">
<svg version="1.0" xmlns="http://www.w3.org/2000/svg"
 width="512.000000pt" height="512.000000pt" viewBox="0 0 512.000000 512.000000"
 preserveAspectRatio="xMidYMid meet">

<g transform="translate(0.000000,512.000000) scale(0.100000,-0.100000)"
fill="#000000" stroke="none">
<path d="M3580 5111 c-46 -15 -85 -39 -118 -74 -34 -35 -47 -69 -335 -867 -24
-68 -42 -130 -40 -137 3 -7 35 -22 72 -33 117 -35 169 -78 254 -211 41 -66 54
-76 72 -58 15 17 395 1069 402 1116 3 17 0 54 -7 82 -25 106 -111 180 -217
187 -32 2 -69 0 -83 -5z"/>
<path d="M2892 4936 c-58 -19 -107 -58 -136 -109 -26 -46 -146 -374 -146 -400
0 -9 18 -26 42 -38 65 -33 142 -116 165 -179 11 -30 30 -111 43 -180 24 -132
39 -166 64 -140 20 22 276 737 283 790 20 167 -154 308 -315 256z"/>
<path d="M1870 4639 c-95 -18 -173 -102 -190 -204 -6 -36 -10 -406 -10 -922
l0 -863 -40 0 -40 0 0 674 c0 410 -4 694 -10 727 -12 66 -51 124 -110 164 -41
27 -52 30 -126 30 -72 0 -86 -3 -129 -30 -31 -19 -61 -49 -80 -79 l-30 -49 -5
-816 -5 -816 -130 150 c-172 200 -215 240 -281 265 -65 24 -76 24 -141 5 -58
-17 -141 -97 -168 -161 -23 -55 -22 -157 3 -225 11 -31 177 -358 369 -725
l349 -669 -45 -530 c-25 -292 -42 -538 -38 -548 6 -16 78 -17 1195 -17 985 0
1191 2 1201 13 8 10 -1 141 -36 513 l-47 499 -6 1326 -5 1326 -30 49 c-19 30
-49 60 -79 79 -44 27 -58 30 -126 30 -68 0 -82 -3 -126 -30 -60 -38 -101 -97
-114 -166 -6 -29 -10 -253 -10 -520 l0 -469 -40 0 -39 0 -3 708 -3 707 -23 45
c-33 63 -59 89 -117 116 -126 60 -275 4 -334 -126 -14 -31 -16 -120 -19 -742
l-3 -708 -39 0 -39 0 -3 903 c-3 891 -3 903 -24 947 -48 104 -159 160 -274
139z"/>
<path d="M4015 4531 c-40 -18 -86 -59 -110 -96 -7 -11 -105 -272 -217 -580
l-203 -560 -3 -1030 -3 -1030 41 -465 c23 -256 43 -471 45 -478 3 -7 15 -12
27 -10 20 3 35 48 173 528 l151 525 417 1152 c230 634 421 1174 426 1199 18
93 -32 201 -113 249 -113 66 -268 29 -331 -79 -13 -23 -96 -241 -184 -485 -88
-244 -162 -446 -165 -448 -8 -9 -76 18 -76 30 0 6 105 299 233 651 213 589
232 646 232 706 0 100 -51 181 -140 221 -53 24 -147 24 -200 0z"/>
</g>
</svg>
