<svg width="24" height="24" viewBox="0 0 24 24" fill="none" xmlns="http://www.w3.org/2000/svg">
<g clip-path="url(#clip0_18_262)">
<path d="M17.5 24.0001C9.35096 24.2301 -5.07704 9.7851 1.86296 1.9381C1.88796 1.9141 2.95396 0.984095 2.95396 0.984095C3.61388 0.346135 4.49801 -0.00705834 5.41585 0.000610607C6.33369 0.00827956 7.21179 0.376197 7.86096 1.0251L10.014 3.3441C10.6476 4.00653 10.9979 4.88988 10.9907 5.80651C10.9834 6.72314 10.619 7.60082 9.97496 8.2531L9.58596 8.6471C10.7422 11.206 12.7873 13.2586 15.342 14.4241L15.752 14.0241C16.4183 13.3887 17.3037 13.0343 18.2245 13.0343C19.1452 13.0343 20.0306 13.3887 20.697 14.0241L22.935 16.1001C23.5989 16.7467 23.98 17.6297 23.9952 18.5564C24.0104 19.483 23.6583 20.3781 23.016 21.0461C23.016 21.0461 22.086 22.1131 22.062 22.1381C21.4623 22.7345 20.7504 23.2061 19.9673 23.5257C19.1843 23.8453 18.3457 24.0066 17.5 24.0001ZM3.94996 4.1001C-0.910039 10.1171 14.643 24.7731 19.905 20.0501C19.905 20.0501 20.829 18.9911 20.854 18.9661C20.9025 18.921 20.9412 18.8664 20.9676 18.8056C20.9941 18.7449 21.0078 18.6793 21.0078 18.6131C21.0078 18.5468 20.9941 18.4813 20.9676 18.4206C20.9412 18.3598 20.9025 18.3052 20.854 18.2601L18.616 16.1861C18.316 15.9361 18.148 15.9331 17.868 16.1461L16.733 17.2631C16.528 17.4647 16.2695 17.6031 15.9882 17.662C15.7068 17.7209 15.4145 17.6976 15.146 17.5951C13.1507 16.853 11.3383 15.6905 9.83172 14.1865C8.32512 12.6825 7.15952 10.8721 6.41396 8.8781C6.30512 8.60735 6.27761 8.31074 6.3348 8.02459C6.39199 7.73845 6.53141 7.4752 6.73596 7.2671L7.84496 6.1401C7.8955 6.09554 7.93615 6.04088 7.96426 5.97965C7.99238 5.91842 8.00734 5.85197 8.00819 5.78459C8.00904 5.71722 7.99575 5.65042 7.96918 5.5885C7.94262 5.52657 7.90337 5.47091 7.85396 5.4251L5.69996 3.1061C5.60336 3.02904 5.48164 2.99048 5.35828 2.99787C5.23493 3.00525 5.11868 3.05806 5.03196 3.1461C5.00896 3.1711 3.94996 4.1001 3.94996 4.1001ZM23.65 10.9331C24.0744 9.46519 24.0974 7.9103 23.7164 6.4305C23.3355 4.9507 22.5647 3.60015 21.4842 2.51962C20.4038 1.43908 19.0533 0.668102 17.5736 0.287045C16.0938 -0.0940125 14.5389 -0.0712031 13.071 0.353095C12.8822 0.409432 12.7064 0.5024 12.5535 0.62669C12.4007 0.75098 12.2738 0.904158 12.1801 1.07748C12.0865 1.2508 12.0279 1.44087 12.0077 1.63683C11.9875 1.8328 12.0061 2.03082 12.0625 2.2196C12.1188 2.40837 12.2118 2.5842 12.3361 2.73705C12.4603 2.88989 12.6135 3.01676 12.7868 3.11041C12.9602 3.20406 13.1502 3.26265 13.3462 3.28284C13.5422 3.30304 13.7402 3.28443 13.929 3.2281C14.8782 2.95671 15.8828 2.94418 16.8386 3.19179C17.7943 3.43941 18.6664 3.93816 19.3645 4.63634C20.0626 5.33452 20.5612 6.20671 20.8087 7.1625C21.0562 8.11828 21.0435 9.12286 20.772 10.0721C20.7157 10.2609 20.6972 10.459 20.7175 10.655C20.7378 10.851 20.7966 11.0411 20.8904 11.2143C20.9842 11.3876 21.1112 11.5407 21.2642 11.6649C21.4171 11.7891 21.5931 11.8819 21.782 11.9381C21.9213 11.9792 22.0657 12 22.211 12.0001C22.5338 11.9997 22.8479 11.8952 23.1066 11.7021C23.3653 11.509 23.5548 11.2375 23.647 10.9281L23.65 10.9331ZM18.064 11.0661C18.2033 10.9268 18.3139 10.7614 18.3894 10.5793C18.4648 10.3973 18.5036 10.2022 18.5036 10.0051C18.5036 9.80803 18.4648 9.6129 18.3894 9.43085C18.3139 9.2488 18.2033 9.0834 18.064 8.9441L17 7.8791V6.5001C17 6.10227 16.8419 5.72074 16.5606 5.43944C16.2793 5.15813 15.8978 5.0001 15.5 5.0001C15.1021 5.0001 14.7206 5.15813 14.4393 5.43944C14.158 5.72074 14 6.10227 14 6.5001V8.5001C13.9999 8.69711 14.0386 8.89222 14.1139 9.07427C14.1892 9.25631 14.2997 9.42174 14.439 9.5611L15.939 11.0611C16.0783 11.2005 16.2437 11.3111 16.4257 11.3865C16.6078 11.4619 16.8029 11.5008 17 11.5008C17.197 11.5008 17.3922 11.4619 17.5742 11.3865C17.7563 11.3111 17.9217 11.2005 18.061 11.0611L18.064 11.0661Z" fill="#FFF6F6"/>
</g>
<defs>
<clipPath id="clip0_18_262">
<rect width="24" height="24" fill="white"/>
</clipPath>
</defs>
</svg>
