<svg width="24" height="24" viewBox="0 0 24 24" fill="none" xmlns="http://www.w3.org/2000/svg">
<g clip-path="url(#clip0_9_87)">
<path d="M17.2499 1.85083C16.2242 1.86075 15.2151 2.11077 14.3034 2.58085C13.3917 3.05093 12.6028 3.728 11.9999 4.55783C11.397 3.728 10.6081 3.05093 9.69638 2.58085C8.7847 2.11077 7.77559 1.86075 6.7499 1.85083C4.89167 1.92504 3.13842 2.73201 1.87351 4.09529C0.608611 5.45858 -0.0650268 7.26725 -0.000101359 9.12583C-0.000101359 13.6778 4.6739 18.5508 8.5999 21.8378C9.55323 22.6394 10.7588 23.0789 12.0044 23.0789C13.25 23.0789 14.4556 22.6394 15.4089 21.8378C19.3309 18.5508 24.0089 13.6778 24.0089 9.12583C24.0738 7.26575 23.3989 5.45576 22.1321 4.09222C20.8653 2.72868 19.1097 1.92272 17.2499 1.85083ZM13.4769 19.5388C13.0633 19.887 12.54 20.078 11.9994 20.078C11.4588 20.078 10.9355 19.887 10.5219 19.5388C5.7419 15.5308 2.9999 11.7358 2.9999 9.12583C2.93614 8.06305 3.29418 7.01801 3.99628 6.21761C4.69838 5.41722 5.68786 4.92608 6.7499 4.85083C7.81193 4.92608 8.80142 5.41722 9.50352 6.21761C10.2056 7.01801 10.5637 8.06305 10.4999 9.12583C10.4999 9.52366 10.6579 9.90519 10.9392 10.1865C11.2205 10.4678 11.6021 10.6258 11.9999 10.6258C12.3977 10.6258 12.7793 10.4678 13.0606 10.1865C13.3419 9.90519 13.4999 9.52366 13.4999 9.12583C13.4361 8.06305 13.7942 7.01801 14.4963 6.21761C15.1984 5.41722 16.1879 4.92608 17.2499 4.85083C18.3119 4.92608 19.3014 5.41722 20.0035 6.21761C20.7056 7.01801 21.0637 8.06305 20.9999 9.12583C20.9999 11.7358 18.2579 15.5308 13.4769 19.5388Z" fill="#FFF6F6"/>
</g>
<defs>
<clipPath id="clip0_9_87">
<rect width="24" height="24" fill="white"/>
</clipPath>
</defs>
</svg>
