<svg width="20" height="20" viewBox="0 0 20 20" fill="none" xmlns="http://www.w3.org/2000/svg">
<path d="M9.86671 5.1605C8.87453 5.1605 7.90463 5.45467 7.07967 6.00581C6.2547 6.55694 5.61172 7.34029 5.23203 8.25679C4.85234 9.1733 4.75299 10.1818 4.94656 11.1547C5.14012 12.1277 5.6179 13.0214 6.31948 13.7229C7.02105 14.4243 7.91492 14.902 8.88803 15.0956C9.86114 15.2891 10.8698 15.1898 11.7865 14.8102C12.7031 14.4305 13.4866 13.7876 14.0378 12.9628C14.589 12.138 14.8833 11.1682 14.8833 10.1762C14.8848 9.51711 14.7562 8.86417 14.5046 8.25491C14.2531 7.64566 13.8836 7.09209 13.4175 6.62602C12.9513 6.15995 12.3977 5.79056 11.7883 5.53906C11.179 5.28756 10.5259 5.15891 9.86671 5.1605ZM9.86671 13.4372C9.22164 13.4372 8.59106 13.246 8.0547 12.8876C7.51834 12.5293 7.10031 12.02 6.85345 11.4242C6.60659 10.8283 6.542 10.1726 6.66785 9.54004C6.7937 8.90747 7.10433 8.32641 7.56046 7.87036C8.01659 7.4143 8.59774 7.10372 9.23042 6.97789C9.86309 6.85206 10.5189 6.91664 11.1148 7.16346C11.7108 7.41028 12.2202 7.82825 12.5786 8.36452C12.937 8.90078 13.1282 9.53126 13.1282 10.1762C13.1266 11.0406 12.7825 11.8691 12.1712 12.4803C11.5599 13.0915 10.7312 13.4356 9.86671 13.4372ZM16.2586 4.95605C16.2584 5.18738 16.1897 5.41346 16.061 5.60573C15.9324 5.79799 15.7496 5.94779 15.5358 6.0362C15.3219 6.12461 15.0867 6.14765 14.8598 6.10242C14.6329 6.05718 14.4245 5.9457 14.261 5.78206C14.0974 5.61843 13.9861 5.40999 13.941 5.18309C13.8959 4.95619 13.9192 4.72102 14.0077 4.50731C14.0963 4.29361 14.2463 4.11096 14.4387 3.98246C14.6311 3.85395 14.8572 3.78536 15.0886 3.78536C15.2424 3.78502 15.3946 3.81505 15.5368 3.87372C15.6789 3.93238 15.808 4.01854 15.9167 4.12724C16.0254 4.23593 16.1116 4.36503 16.1703 4.50711C16.2289 4.64919 16.259 4.80233 16.2586 4.95605ZM19.584 6.14225C19.6161 4.62146 19.0483 3.14913 18.0033 2.04358C16.8953 1.00228 15.4243 0.435116 13.9039 0.463116C12.2887 0.37167 7.44645 0.37167 5.83121 0.463116C4.31014 0.432125 2.8374 0.997899 1.72842 2.03926C0.684145 3.147 0.116526 4.62033 0.147697 6.14225C0.0562363 7.75722 0.0562363 12.5987 0.147697 14.2137C0.117213 15.7324 0.684926 17.2022 1.72842 18.3063C2.8368 19.3469 4.30758 19.9139 5.82776 19.8868C7.443 19.9782 12.2852 19.9782 13.9005 19.8868C15.4215 19.9188 16.8941 19.3511 17.9998 18.3063C19.0421 17.1995 19.6106 15.7293 19.584 14.2093C19.6755 12.5944 19.6755 7.75722 19.584 6.14225ZM17.4942 15.9425C17.3282 16.3634 17.0773 16.7458 16.7573 17.0657C16.4373 17.3857 16.0549 17.6365 15.6339 17.8025C14.3457 18.3132 11.2895 18.195 9.86671 18.195C8.44389 18.195 5.37995 18.3089 4.0995 17.8025C3.67881 17.6363 3.29676 17.3854 2.97705 17.0654C2.65735 16.7455 2.4068 16.3633 2.24094 15.9425C1.73014 14.6545 1.84835 11.5988 1.84835 10.1762C1.84835 8.75364 1.73446 5.6902 2.24094 4.40996C2.4068 3.98918 2.65735 3.60697 2.97705 3.28701C3.29676 2.96706 3.67881 2.7162 4.0995 2.54998C5.38771 2.03926 8.44389 2.15745 9.86671 2.15745C11.2895 2.15745 14.3535 2.04358 15.6339 2.54998C16.0549 2.716 16.4373 2.96678 16.7573 3.28674C17.0773 3.6067 17.3282 3.98902 17.4942 4.40996C18.005 5.69797 17.8868 8.75364 17.8868 10.1762C17.8868 11.5988 18.005 14.6588 17.4942 15.9425Z" fill="#FFF6F6"/>
</svg>
