<svg width="80" height="21" viewBox="0 0 80 21" fill="none" xmlns="http://www.w3.org/2000/svg">
<g clip-path="url(#clip0_52_28)">
<path d="M27.6149 17.5632V2.7275C27.6149 2.58811 27.5404 2.45848 27.4178 2.38657L26.9734 2.12643C26.8508 2.05452 26.7762 1.92489 26.7762 1.7855V1.07967C26.7762 0.883461 26.9225 0.717435 27.1206 0.687249L31.2359 0.061324C31.2568 0.0577726 31.2777 0.0568848 31.2986 0.0568848H31.7693C31.9937 0.0568848 32.1764 0.234452 32.1764 0.454636V8.10779L32.3445 7.9027C32.4562 7.75709 32.6216 7.58396 32.8406 7.38331C33.0596 7.18266 33.304 6.98467 33.5748 6.78846C33.8456 6.59225 34.1691 6.42445 34.5471 6.2824C34.9251 6.14123 35.2958 6.0702 35.6592 6.0702C36.9368 6.0702 37.8391 6.41202 38.3661 7.09565C38.8931 7.77929 39.1566 8.92282 39.1566 10.5263V10.7571C39.1566 10.7669 39.1567 10.7784 39.1557 10.7882C39.1476 10.8903 39.143 10.9711 39.143 11.0314V17.5632C39.143 17.7825 38.9613 17.961 38.7359 17.961H34.9332C34.7088 17.961 34.5262 17.7834 34.5262 17.5632V10.6346C34.5543 9.77781 34.1809 9.34987 33.4067 9.34987C33.3322 9.34987 33.2595 9.35431 33.1895 9.36319C33.1196 9.37207 33.0469 9.39515 32.9724 9.43155C32.8978 9.46795 32.8397 9.49548 32.7979 9.51323C32.7561 9.53188 32.6952 9.56828 32.6162 9.62244C32.5371 9.67748 32.4853 9.71389 32.4626 9.73164C32.439 9.75029 32.3835 9.79557 32.2945 9.86837C32.2945 9.86837 32.2927 9.87014 32.2918 9.87014C32.2 9.94561 32.1473 10.0566 32.1473 10.1738V17.5615C32.1473 17.7808 31.9656 17.9592 31.7402 17.9592H28.022C27.7976 17.9592 27.6149 17.7817 27.6149 17.5615V17.5632Z" fill="white"/>
<path d="M43.043 17.7826C42.2733 17.4727 41.6673 17.0403 41.2248 16.4845C40.7813 15.9288 40.4578 15.3019 40.2525 14.605C40.0471 13.908 39.9445 13.1312 39.9445 12.2744C39.9445 10.2333 40.476 8.68934 41.5391 7.64081C42.6023 6.59316 44.0897 6.06934 46.0015 6.06934C47.9134 6.06934 49.1537 6.49106 49.946 7.33362C50.7384 8.17617 51.1345 9.5319 51.1345 11.3999V12.6571C51.1345 12.8009 51.0155 12.9172 50.8683 12.9172H45.0075C44.8603 12.9172 44.7412 13.0335 44.7412 13.1774C44.7412 13.7154 44.7994 14.1566 44.9157 14.5029C45.032 14.8492 45.2028 15.104 45.4264 15.2682C45.6499 15.4325 45.8789 15.5417 46.1115 15.5958C46.3441 15.6509 46.6294 15.6775 46.9647 15.6775C47.3 15.6775 47.6435 15.6367 48.0206 15.5541C48.3986 15.4724 48.7802 15.3446 49.1673 15.1714C49.4462 15.0463 49.6925 14.9051 49.9069 14.7471C50.0351 14.6521 50.2168 14.6858 50.2977 14.8207L50.8819 15.7974C50.9328 15.8826 50.9319 15.99 50.8756 16.0708C50.5348 16.5582 50.0587 16.9711 49.4472 17.3093C48.7802 17.6787 48.1396 17.9264 47.5235 18.0542C46.9084 18.1821 46.3205 18.246 45.7607 18.246C44.7167 18.246 43.809 18.0906 43.0402 17.7817H43.043V17.7826ZM46.7003 8.43453C46.5794 7.95155 46.355 7.71006 46.0288 7.71006C45.7489 7.71006 45.52 7.758 45.3437 7.85389C45.1665 7.94977 45.0356 8.09982 44.952 8.30491C44.8685 8.51 44.8148 8.71953 44.7912 8.9335C44.7676 9.14747 44.7567 9.41826 44.7567 9.74675V10.6355C44.7567 10.7793 44.8757 10.8956 45.0229 10.8956H46.6167C46.7648 10.8956 46.8838 10.7766 46.8829 10.6328C46.8739 9.61358 46.8139 8.88111 46.7021 8.43542H46.7003V8.43453Z" fill="white"/>
<path d="M52.3348 17.2879V9.49267C52.3348 9.25917 52.2113 9.04254 52.0077 8.92001L51.8224 8.80815C51.6188 8.68562 51.4952 8.46899 51.4952 8.23549V7.5927C51.4952 7.28373 51.7115 7.01383 52.0186 6.94014L54.422 6.36127C54.4756 6.34795 54.5311 6.34174 54.5865 6.34174H55.0263C55.3743 6.34174 55.6669 6.59566 55.7096 6.93304L56.0412 9.59477C56.4238 7.36275 57.6496 6.24585 59.7204 6.24585H59.7276C60.1202 6.24585 60.4273 6.57701 60.3901 6.95967L60.0538 10.4027C60.0166 10.7827 59.664 11.0499 59.276 11.0047C59.1061 10.9851 58.9089 10.9754 58.6854 10.9754C57.9122 10.9754 57.3633 11.1378 57.0408 11.4637C56.9181 11.5871 56.8536 11.7549 56.8536 11.9271V17.2879C56.8536 17.659 56.5455 17.96 56.1657 17.96H53.0236C52.6438 17.96 52.3357 17.659 52.3357 17.2879H52.3348Z" fill="white"/>
<path d="M62.3391 17.1405C61.8403 16.4027 61.5904 15.1544 61.5904 13.3956V8.74867H60.918C60.7563 8.74867 60.6245 8.62082 60.6245 8.46189V7.05911C60.6245 6.93393 60.7081 6.82295 60.8299 6.78566L62.2746 6.34263L63.6249 3.32931C63.6712 3.22543 63.7766 3.15796 63.8938 3.15796H65.8711C66.0328 3.15796 66.1646 3.28581 66.1646 3.44473V6.34263H68.1654C68.3272 6.34263 68.4589 6.47048 68.4589 6.6294V10.0609C68.4589 10.2189 68.3281 10.3477 68.1654 10.3477H66.1228V13.8333C66.1228 14.5622 66.23 15.0452 66.4444 15.2823C66.6589 15.5193 66.9896 15.6374 67.4376 15.6374C67.6339 15.6374 67.8101 15.6143 67.9692 15.569C67.971 15.569 67.9719 15.5681 67.9737 15.5673C68.1663 15.5113 68.3608 15.6427 68.3608 15.8389V17.1121C68.3608 17.1964 68.3217 17.2763 68.2572 17.3314C68.1345 17.4353 67.9873 17.5382 67.8156 17.6395C67.5921 17.7717 67.2213 17.9058 66.7034 18.0425C66.1855 18.1793 65.6103 18.2476 64.9761 18.2476C63.7176 18.2476 62.838 17.8783 62.3391 17.1405Z" fill="white"/>
<path d="M69.0641 16.7508C68.9632 16.3388 68.866 15.9944 68.7724 15.7174C68.737 15.6135 68.7588 15.4998 68.8269 15.4137L73.6655 9.35778C73.6846 9.33469 73.7064 9.31339 73.7309 9.29563L75.3847 8.09794L74.1207 8.24887C73.78 8.28971 73.4938 8.33765 73.2602 8.3927C73.0267 8.44775 72.8123 8.53209 72.6169 8.64573C72.4207 8.75938 72.2716 8.85526 72.169 8.9325C72.0663 9.00975 71.9636 9.12605 71.8609 9.28054C71.7582 9.43591 71.691 9.55133 71.6583 9.62946C71.6256 9.7067 71.5765 9.83277 71.5111 10.005C71.4938 10.0512 71.4775 10.0938 71.4638 10.1311C71.4157 10.2607 71.2894 10.3459 71.1476 10.3459H69.7919C69.6056 10.3459 69.4548 10.1986 69.4548 10.0166V6.67118C69.4548 6.48918 69.6056 6.3418 69.7919 6.3418H78.5286C78.6913 6.3418 78.8285 6.45366 78.8594 6.60992C78.9066 6.8523 78.973 7.11865 79.0575 7.40809C79.1565 7.74991 79.2674 8.07397 79.3909 8.38205C79.4309 8.48326 79.4191 8.59601 79.3573 8.68569L75.3347 14.509C75.3129 14.5401 75.2865 14.5676 75.2557 14.5898L73.5819 15.7999C74.4769 15.7999 75.1811 15.7635 75.6945 15.6907C76.4687 15.5815 76.9721 15.34 77.2056 14.9662C77.2856 14.8411 77.3937 14.5436 77.5291 14.0731C77.57 13.931 77.7027 13.8316 77.8544 13.8316H78.8966C79.0829 13.8316 79.2337 13.979 79.2337 14.161V17.6298C79.2337 17.8118 79.0829 17.9591 78.8966 17.9591H69.5875C69.4185 17.9591 69.2776 17.8366 69.2531 17.6733C69.214 17.4131 69.1513 17.105 69.0641 16.749V16.7508Z" fill="white"/>
<path d="M10.1542 10.3321L8.06703 9.61918C7.76899 9.51708 7.56999 9.24274 7.56999 8.93466V0.841141C7.56999 0.262272 6.91031 -0.0830966 6.41691 0.236525L0.331659 4.18296C0.124486 4.31702 0 4.54431 0 4.78757V5.28121C0 5.53602 0.136298 5.77219 0.359827 5.9027L0.507937 5.98971C0.731466 6.12111 0.867764 6.35727 0.867764 6.61119V20.2741C0.867764 20.9577 1.74734 21.2623 2.18713 20.7296L10.3178 10.8977C10.5149 10.6597 10.8439 10.5674 11.1401 10.6686L13.2273 11.3815C13.5253 11.4836 13.7243 11.758 13.7243 12.0661V20.1605C13.7243 20.7393 14.384 21.0847 14.8774 20.7651L20.9626 16.8186C21.1698 16.6846 21.2943 16.4573 21.2943 16.214V15.7204C21.2943 15.4656 21.158 15.2294 20.9345 15.0989L20.7864 15.0119C20.5628 14.8805 20.4265 14.6443 20.4265 14.3904V0.727498C20.4265 0.043864 19.547 -0.260664 19.1072 0.272038L10.9765 10.1039C10.7794 10.3419 10.4504 10.4342 10.1542 10.333V10.3321Z" fill="white"/>
</g>
<defs>
<clipPath id="clip0_52_28">
<rect width="80" height="21" fill="white"/>
</clipPath>
</defs>
</svg>
