<svg width="206" height="31" viewBox="0 0 206 31" fill="none" xmlns="http://www.w3.org/2000/svg">
<path d="M15.5 0L18.98 10.7102H30.2414L21.1307 17.3295L24.6107 28.0398L15.5 21.4205L6.38933 28.0398L9.8693 17.3295L0.758624 10.7102H12.02L15.5 0Z" fill="#704375"/>
<path d="M59 0L62.5922 10.7102H74.2169L64.8123 17.3295L68.4046 28.0398L59 21.4205L49.5954 28.0398L53.1877 17.3295L43.7831 10.7102H55.4078L59 0Z" fill="#704375"/>
<path d="M103 0L106.592 10.7102H118.217L108.812 17.3295L112.405 28.0398L103 21.4205L93.5954 28.0398L97.1877 17.3295L87.7831 10.7102H99.4078L103 0Z" fill="#704375"/>
<path d="M147 0L150.592 10.7102H162.217L152.812 17.3295L156.405 28.0398L147 21.4205L137.595 28.0398L141.188 17.3295L131.783 10.7102H143.408L147 0Z" fill="#704375"/>
<path d="M190.5 0L193.98 10.7102H205.241L196.131 17.3295L199.611 28.0398L190.5 21.4205L181.389 28.0398L184.869 17.3295L175.759 10.7102H187.02L190.5 0Z" fill="#704375"/>
</svg>
